<svg width="34" height="44" viewBox="0 0 34 44" fill="none" xmlns="http://www.w3.org/2000/svg">
<g clip-path="url(#clip0_80_356)">
<g clip-path="url(#clip1_80_356)">
<path d="M21.8096 10.5794C21.8096 10.5794 21.8116 10.5716 21.8126 10.5667C21.8126 10.5706 21.8106 10.5755 21.8096 10.5794Z" fill="white"/>
<path d="M4.87428 23.7575C4.94871 23.7153 5.06512 23.7729 5.05337 23.9099C5.04833 23.9747 5.01195 24.0258 4.9683 24.0339C4.91793 24.3144 4.90674 24.6167 4.80936 24.8761C4.75451 25.0221 4.66217 25.1428 4.64034 25.3123C4.6062 25.6211 4.77969 25.8708 4.92912 26.0532C5.02091 26.1813 4.88435 26.3864 4.79257 26.2559C4.44726 25.8635 4.30062 25.3034 4.61907 24.7837C4.72485 24.5341 4.72877 24.2276 4.78081 23.9496C4.79481 23.8709 4.81999 23.7899 4.87484 23.7566L4.87428 23.7575Z" fill="white"/>
<path d="M6.22416 26.9879C6.20289 26.6499 6.02995 25.6617 6.23199 25.4591C6.37694 25.335 6.50735 25.6188 6.34169 25.7128C6.31146 26.123 6.38086 26.5389 6.4178 26.945C6.43459 27.1282 6.24766 27.1728 6.22416 26.9879Z" fill="white"/>
<path d="M5.01244 29.3833C4.96655 29.2974 4.90107 29.2333 4.8244 29.2293C4.77123 29.2204 4.73261 29.1482 4.73821 29.0712C4.76004 28.8848 4.91786 28.9504 5.00013 29.0072C5.06617 29.055 5.11766 29.1263 5.16523 29.2074C5.24358 29.3525 5.09304 29.5268 5.01132 29.3833H5.01244Z" fill="white"/>
<path d="M6.10269 37.0188C6.06127 36.2381 5.95158 35.5013 5.86371 34.7344C5.82509 34.2448 5.82286 33.7495 5.76409 33.2631C5.73555 33.2525 5.7098 33.2242 5.69693 33.182C5.64264 33.0353 5.68574 32.7589 5.83293 32.8351C5.91576 32.891 5.93087 33.0377 5.94934 33.1536C6.04168 33.8735 6.01314 34.6168 6.13515 35.331C6.21406 35.875 6.25715 36.4246 6.29633 36.9758C6.31424 37.1574 6.12395 37.2028 6.10269 37.0188Z" fill="white"/>
<path d="M8.7449 35.3043C8.61506 35.156 8.52608 34.9428 8.42534 34.7555C8.30109 34.5107 8.16845 34.2627 8.12144 33.9595C8.10689 33.8055 8.01902 33.4796 8.18244 33.4512C8.23617 33.4496 8.28094 33.5136 8.28206 33.5906C8.2871 34.167 8.60219 34.6258 8.83389 35.0457C8.99843 35.1146 8.88706 35.4235 8.74434 35.3043H8.7449Z" fill="white"/>
<path d="M10.3757 31.0135C10.2509 30.9235 10.2414 30.7525 10.3136 30.5936C10.4384 30.2977 10.5442 29.98 10.5923 29.6427C10.6029 29.5665 10.6623 29.5228 10.7115 29.5406C10.7652 29.5609 10.7921 29.6379 10.782 29.7133C10.73 30.0918 10.6074 30.4363 10.4725 30.7655C10.5828 30.8619 10.4893 31.1011 10.3763 31.0127L10.3757 31.0135Z" fill="white"/>
<path d="M12.2321 26.6241C12.231 26.5479 12.2747 26.479 12.3278 26.479C12.381 26.479 12.4269 26.5398 12.428 26.6176C12.4291 26.6938 12.3855 26.7627 12.3323 26.7627C12.2791 26.7627 12.2333 26.7019 12.2321 26.6241Z" fill="white"/>
<path d="M12.2349 26.4926C12.1521 26.4683 12.0144 26.4051 12.0558 26.2454C12.0872 26.1319 12.1806 26.157 12.2489 26.1546C12.3418 26.1538 12.4353 26.1408 12.5265 26.1133C12.583 26.0817 12.653 26.11 12.6709 26.2016C12.7028 26.4505 12.4341 26.4067 12.3256 26.4351C12.3054 26.4748 12.2702 26.4991 12.2355 26.4926H12.2349Z" fill="white"/>
<path d="M11.9428 21.7772C11.7643 21.7756 11.837 21.4554 11.837 21.2916C11.8443 21.0038 11.8163 20.7266 11.7951 20.4437C11.7486 19.8179 11.9137 19.2237 12.0402 18.6384C12.076 18.4608 12.2601 18.5273 12.2299 18.7089C12.1135 19.2577 11.9568 19.7887 11.9865 20.3707C12.015 20.759 12.0536 21.1424 12.02 21.5324C12.0894 21.6191 12.0329 21.7958 11.9423 21.7772H11.9428Z" fill="white"/>
<path d="M10.2447 18.8938C10.1972 18.8549 10.1832 18.769 10.2078 18.7001C10.3119 18.4131 10.4597 18.1643 10.6007 17.9154C10.763 17.6268 10.9264 17.3382 11.0708 17.031C11.0523 16.9459 11.0977 16.8737 11.1497 16.8478C11.26 16.7643 11.3462 16.9556 11.2756 17.091C11.0535 17.6082 10.7591 18.0508 10.5089 18.5388C10.4597 18.6344 10.416 18.7349 10.3779 18.8411C10.3528 18.9092 10.2895 18.9311 10.2442 18.8946L10.2447 18.8938Z" fill="white"/>
<path d="M15.3097 34.4887C15.2135 34.1879 15.1525 33.8612 15.1256 33.5313C15.1082 33.293 15.1166 33.0522 15.1071 32.8131C15.0875 32.4969 15.0344 32.1873 14.9622 31.8889C14.768 31.0824 14.4221 30.3512 14.3415 29.4927C14.3001 29.1717 14.1893 28.8507 14.2374 28.5199C14.2559 28.4048 14.3152 28.2597 14.4092 28.3327C14.4574 28.3724 14.4702 28.4575 14.4462 28.5264C14.3689 28.8012 14.4965 29.1003 14.524 29.3768C14.6018 30.2182 14.9286 30.9227 15.1245 31.7082C15.2146 32.0535 15.2789 32.4118 15.3013 32.7798C15.3192 33.0911 15.2957 33.4081 15.3427 33.7161C15.3802 33.9561 15.4194 34.1636 15.4894 34.3744C15.5392 34.5414 15.364 34.6589 15.3097 34.4879V34.4887Z" fill="white"/>
<path d="M17.8287 36.0347C17.7733 36.0258 17.7325 35.9463 17.7442 35.8669C17.7604 35.5045 17.7845 35.1422 17.7604 34.779C17.7358 34.3486 17.6065 33.9441 17.6827 33.5136C17.7022 33.3304 17.8903 33.3612 17.8774 33.5468C17.8494 33.7398 17.8461 33.9505 17.8813 34.1394C17.9323 34.4223 17.9586 34.7117 17.9658 35.0036C17.9748 35.2913 17.9524 35.5775 17.9401 35.8637C17.9457 35.9569 17.8964 36.0477 17.8293 36.0347H17.8287Z" fill="white"/>
<path d="M18.0521 29.9356C17.9195 29.8253 18.0521 29.561 18.1719 29.5967C18.4713 29.1971 18.5261 28.598 18.6269 28.0565C18.6409 27.9819 18.694 27.9349 18.7461 27.9552C18.797 27.9738 18.8306 28.0533 18.8166 28.1278C18.7869 28.2859 18.7589 28.4448 18.7315 28.6045C18.6756 28.9774 18.5832 29.3438 18.4097 29.6372C18.3213 29.7791 18.2026 30.0239 18.0521 29.9356Z" fill="white"/>
<path d="M19.2139 25.3472C19.1378 25.3067 19.0925 25.1599 19.1126 25.0473C19.13 24.9581 19.1591 24.8746 19.1865 24.7911C19.3158 24.3671 19.4635 23.9553 19.6477 23.5751C19.7367 23.379 19.8357 23.1917 19.9504 23.0263C19.9874 22.9712 20.0512 22.9704 20.0892 23.0239C20.1273 23.0782 20.1279 23.169 20.0909 23.2241C19.7417 23.76 19.5066 24.4296 19.3063 25.1C19.3768 25.2005 19.3124 25.3845 19.2145 25.3464L19.2139 25.3472Z" fill="white"/>
<path d="M16.7 21.3922C16.5746 21.2033 16.916 20.9074 17.0167 20.8369C17.244 20.6885 17.4863 20.5685 17.6475 20.2751C17.7829 20.0741 17.901 19.8325 18.0661 19.6817C18.1433 19.6298 18.2306 19.7522 18.1971 19.8665C18.178 19.9306 18.1377 19.9784 18.0946 20.0043C17.9396 20.2102 17.812 20.4567 17.6559 20.6618C17.4908 20.8887 17.2647 20.9714 17.0665 21.119C16.9781 21.1838 16.9037 21.2819 16.8393 21.3905C16.8041 21.4481 16.7375 21.4448 16.7005 21.393L16.7 21.3922Z" fill="white"/>
<path d="M16.8908 19.0095C16.4755 19.0054 16.7011 18.5499 16.8813 18.3115C17.0648 18.0456 17.3133 17.9208 17.4146 17.5601C17.4409 17.4928 17.5019 17.4685 17.5484 17.5066C17.5948 17.5447 17.6116 17.633 17.5853 17.7003C17.5372 17.8227 17.4902 17.9492 17.4241 18.0529C17.2467 18.2759 17.0268 18.4364 16.8897 18.7233C17.0346 18.7169 17.0369 19.0217 16.8919 19.0095H16.8908Z" fill="white"/>
<path d="M18.1679 15.3319C18.0845 15.3149 18.019 15.1665 18.0867 15.0676C18.1432 14.9938 18.2557 14.9517 18.2921 15.079C18.4835 15.1065 18.6598 14.9914 18.8484 14.972C18.976 14.9501 19.0046 15.2216 18.8781 15.2524C18.6419 15.2816 18.4052 15.4365 18.1679 15.3311V15.3319Z" fill="white"/>
<path d="M19.7059 18.3651C19.6958 18.2719 19.7518 18.1949 19.8156 18.1989C19.8811 18.173 19.9437 18.1268 19.9952 18.0619C20.1749 17.7798 20.0725 17.3575 20.0741 17.0154C20.0769 16.7754 20.0993 16.5282 20.0422 16.2971C20.0115 16.1942 20.0064 16.0418 20.0937 15.9956C20.1704 15.9542 20.293 16.0013 20.2812 16.1464C20.2779 16.1893 20.2605 16.2258 20.237 16.2485C20.3047 16.5411 20.2611 16.8516 20.2734 17.1532C20.321 17.5917 20.3249 18.1786 20.0014 18.3951C19.9146 18.4591 19.7395 18.5694 19.7053 18.3643L19.7059 18.3651Z" fill="white"/>
<path d="M17.798 11.9601C17.6513 11.8831 17.737 11.6764 17.8209 11.5751C17.8814 11.5078 17.9519 11.3886 18.0347 11.4219C18.1685 11.267 18.3436 11.177 18.4326 10.9533C18.5087 10.8058 18.6654 10.9752 18.5893 11.1244C18.4875 11.3773 18.2961 11.4908 18.141 11.661C18.028 11.7672 17.9446 11.9796 17.7985 11.9609L17.798 11.9601Z" fill="white"/>
<path d="M19.1127 8.82707C18.9336 8.78411 19.0785 8.28881 19.1423 8.15586C19.3281 7.76756 19.6399 7.65488 19.9119 7.45871C20.1335 7.30307 20.3226 7.09716 20.537 6.92612C20.6472 6.8337 20.7474 7.07284 20.6377 7.16931C20.3081 7.45871 19.9824 7.75621 19.6236 7.95806C19.06 8.33096 19.341 8.82464 19.1121 8.82707H19.1127Z" fill="white"/>
<path d="M22.2163 5.43625C22.2325 4.81854 22.1626 4.21704 22.0926 3.6123C22.0389 3.30507 22.0204 2.9873 22.0445 2.67196C22.0165 2.6217 22.0104 2.54955 22.0176 2.48227C22.0081 2.45714 22.0036 2.42796 22.0059 2.39796C22.0087 2.36148 22.0216 2.32906 22.04 2.30717C22.0456 2.23989 22.0495 2.17179 22.0579 2.10613C21.0477 2.6752 20.4131 4.71072 19.6021 5.69889C18.8455 6.70166 18.4677 5.7224 17.9321 6.70652C17.7676 7.03564 17.6131 7.37935 17.453 7.71172C17.2202 8.23134 17.143 8.5329 16.6762 8.24755C16.5044 8.16649 16.3399 8.15676 16.1658 8.19405C16.1356 8.20621 16.1003 8.21999 16.0779 8.24917C16.135 8.84013 16.1569 9.44487 16.1154 10.0383C16.0897 10.3585 16.0522 10.6811 16.0701 11.0037C16.1166 11.5104 16.1764 12.017 16.1848 12.5285C16.1843 12.8179 16.1658 13.1065 16.1417 13.3943C16.1513 13.4194 16.1557 13.4486 16.1535 13.4786C16.1429 13.6391 16.1289 13.7996 16.116 13.9593C16.0936 14.1847 16.0835 14.4109 16.0841 14.6395C16.0774 14.9734 16.0427 15.305 16.0304 15.639C16.0237 16.2583 15.9968 16.8752 15.9962 17.4856C16.0466 17.9842 16.1059 18.4876 16.2083 18.9691C16.2973 19.3298 16.4484 19.6565 16.5089 20.0327C16.5732 20.4185 16.5195 20.8165 16.4871 21.204C16.4507 21.658 16.3835 22.1047 16.3511 22.5586C16.3152 23.0134 16.2867 23.4698 16.2598 23.9262C16.2397 24.1102 16.2604 24.5812 16.0539 24.4401C16.003 24.3785 15.9906 24.2764 15.9638 24.1921C15.9117 23.9959 15.8591 23.7997 15.802 23.6068C15.6767 23.2274 15.6246 22.8123 15.5424 22.4127C15.4153 21.9839 15.2508 21.585 15.1086 21.174C15.0118 20.9017 14.9698 20.5993 14.9094 20.3083C14.8142 19.8932 14.7364 19.4717 14.6486 19.0534C14.5904 18.7794 14.5484 18.4989 14.484 18.2282C14.4169 17.9679 14.3335 17.7175 14.2719 17.4548C14.1365 16.8857 14.1326 16.2737 14.1555 15.6787C14.2171 14.3922 13.6378 15.151 13.4425 14.0963C13.3502 13.7186 13.2964 13.3262 13.2254 12.9404C13.2254 12.9404 13.2254 12.9395 13.2254 12.9387C13.2041 12.9095 13.194 12.8771 13.1923 12.8447C13.1705 12.7969 13.1425 12.7547 13.1095 12.7199C13.1033 12.7255 13.0977 12.7304 13.0916 12.7353C12.9539 12.8779 12.8123 13.0182 12.6998 13.203C12.5935 13.3911 12.5028 13.5954 12.4032 13.7907C12.181 14.1831 11.923 14.5389 11.6482 14.8543C11.5033 15.0253 11.3096 15.0691 11.1602 15.2264C11.0813 15.3309 11.0231 15.4606 10.9509 15.5749C10.8557 15.7225 10.7382 15.8352 10.624 15.9503C10.3229 16.2518 9.97764 16.4569 9.6799 16.7658C9.57972 16.8784 9.45771 16.983 9.40287 17.1533C9.42413 18.1982 9.52599 19.2285 9.43477 20.2767C9.42469 20.6025 9.43197 20.9284 9.43477 21.2535C9.43588 21.2648 9.43645 21.277 9.43533 21.2891C9.43533 21.2908 9.43533 21.2916 9.43533 21.2924C9.43645 21.4164 9.43645 21.5396 9.43533 21.6637C9.43365 21.7334 9.43197 21.8039 9.42749 21.8736C9.4426 22.3195 9.48737 22.7661 9.42637 23.2112C9.39727 23.5849 9.36369 23.9586 9.34914 24.3347C9.34522 24.937 9.38943 25.5393 9.39111 26.1425C9.39279 26.975 9.34578 27.8067 9.30884 28.6368C9.30213 28.8768 9.30045 29.1167 9.29373 29.3567C9.29205 29.5131 9.29261 29.8455 9.12695 29.7482C9.0861 29.7182 9.07267 29.655 9.06707 29.5942C9.0542 29.5042 9.0458 29.4353 9.02733 29.3518C8.98927 29.1994 8.90029 29.0964 8.83425 28.9716C8.73799 28.7933 8.66523 28.5906 8.60031 28.3855C8.43241 27.9364 8.37924 27.4314 8.31264 26.9369C8.19679 26.2981 8.13691 25.6431 8.00819 25.01C7.94383 24.6801 7.88674 24.3445 7.77593 24.0388C7.58061 23.5063 7.2963 23.032 7.20395 22.4305C7.10993 21.6175 6.91013 20.8457 6.74615 20.0586C6.71705 20.0351 6.69858 19.9978 6.69019 19.9581C6.62974 20.0059 6.57042 20.0618 6.50662 20.0935C6.09862 20.3131 5.67832 20.5093 5.30446 20.8384C5.06996 21.0419 4.79349 21.1513 4.55564 21.3362C4.15828 21.6661 3.74357 21.9944 3.28129 22.0739C3.27569 22.3754 3.31822 22.6656 3.32214 22.9656C3.32494 23.2671 3.29696 23.5695 3.24491 23.8605C3.21077 24.111 3.09212 24.3128 3.06022 24.5625C3.02104 25.014 3.02552 25.4721 3.04567 25.926C3.08317 26.4416 3.18055 26.9426 3.22476 27.4557C3.2645 27.8181 3.29808 28.1812 3.33501 28.5436C3.37699 28.9319 3.45646 29.2934 3.485 29.6817C3.50515 29.9192 3.485 30.1568 3.47325 30.3935C3.46821 30.6918 3.50851 30.9868 3.51802 31.2852C3.55216 31.7845 3.52586 32.3074 3.67193 32.7711C3.74804 32.9883 3.87789 33.1521 3.96407 33.3604C4.16107 33.8711 4.32282 34.4321 4.38326 35.0133C4.39837 35.4835 4.26741 35.9334 4.26629 36.4036C4.24055 36.8989 4.28868 37.3925 4.35864 37.8773C4.409 38.1189 4.42747 38.9174 4.57858 38.9976C4.8433 39.0568 5.10746 39.1192 5.37498 39.137C5.60332 39.1638 5.82775 39.1022 6.04378 39C6.27268 38.8955 6.52061 38.739 6.74783 38.9376C6.9952 39.1216 7.19052 39.3754 7.45412 39.5002C7.67855 39.5861 7.93767 39.6153 8.1593 39.5083C8.40667 39.3778 8.66075 39.2367 8.92827 39.24C9.05979 39.2416 9.19075 39.2692 9.32171 39.2894C9.53159 39.3202 9.74202 39.3575 9.95301 39.3462C10.0062 39.3421 10.0593 39.3381 10.1125 39.3381C10.1976 39.3381 10.2821 39.3478 10.3644 39.3827C10.7063 39.5051 10.9587 39.9112 11.1697 40.2882C11.1887 40.3027 11.2078 40.3133 11.2268 40.3214C11.2425 40.3011 11.2615 40.2881 11.2816 40.2849C11.2917 40.2671 11.3018 40.2484 11.3124 40.2314C11.3175 40.2233 11.3225 40.216 11.3281 40.2095C11.3359 40.1066 11.3997 39.9996 11.4887 39.9898C11.5576 39.5034 11.5464 39.0073 11.5369 38.5137C11.5693 37.6228 11.5732 36.727 11.6533 35.8402C11.7243 35.2492 11.8178 34.6631 11.9169 34.0811C11.9879 33.6741 12.0982 33.3166 12.157 32.9194C12.1838 32.7078 12.2006 32.4946 12.2146 32.2806C12.2213 32.1834 12.2202 32.0593 12.2902 32.0107C12.4474 31.9304 12.4732 32.2571 12.5157 32.4055C12.6097 32.844 12.6881 33.2915 12.7278 33.7487C12.7675 34.1338 12.7424 34.5261 12.7832 34.9095C12.9164 35.481 13.2282 35.9172 13.4028 36.4603C13.5209 36.8073 13.6126 37.1712 13.7263 37.5206C13.8152 37.7662 13.9328 37.9867 14.0329 38.2226C14.1331 38.4585 14.2176 38.7082 14.31 38.9506C14.3777 39.1216 14.4269 39.3267 14.5719 39.3802C14.5803 39.3851 14.5876 39.3916 14.5937 39.3981C14.6536 39.4305 14.7101 39.5456 14.7678 39.5878C14.9525 39.6096 15.1411 39.6534 15.3252 39.6007C15.4702 39.5513 15.6095 39.4718 15.7573 39.4394C15.91 39.4086 16.0651 39.4354 16.2184 39.4451C16.6096 39.3924 16.9902 39.1695 17.3898 39.1962C17.9763 39.2043 18.5886 39.1954 19.127 39.5732C19.3536 39.7037 19.5613 39.5772 19.77 39.4508C19.9363 39.3494 20.1036 39.2489 20.281 39.2789C20.2351 39.0746 20.2911 38.7431 20.3129 38.5826C20.4248 37.7881 20.7813 37.0942 20.8194 36.2763C20.8703 35.4089 20.3734 34.7588 20.3062 33.9303C20.276 33.5047 20.4282 33.1107 20.6023 32.7849C20.7047 32.5854 20.8233 32.3941 20.8804 32.155C20.9459 31.8332 20.8726 31.4967 20.8675 31.1701C20.8631 30.8482 20.9229 30.5329 20.9974 30.2321C21.2005 29.6079 21.1938 28.9132 21.2044 28.238C21.2363 27.5578 21.1087 26.9037 20.9839 26.2559C20.8726 25.6958 20.8261 25.1016 20.9666 24.5423C21.0511 24.1872 21.1815 23.8516 21.2324 23.4852C21.3186 22.7799 21.2996 22.0633 21.299 21.3516C21.308 20.9535 21.3528 20.5588 21.3998 20.1672C21.449 19.783 21.5005 19.4028 21.5749 19.0275C21.6611 18.5451 21.8066 18.0628 21.7831 17.5561C21.7434 17.1468 21.613 16.7609 21.6152 16.3418C21.6068 15.699 21.768 15.0926 21.8654 14.4749C21.9231 13.9188 21.9415 13.3513 21.9214 12.7888C21.8995 12.3364 21.6874 11.9465 21.6874 11.4885C21.6992 11.2429 21.7305 10.9981 21.7675 10.7532C21.7843 10.6924 21.7999 10.6316 21.8106 10.5676C21.8162 10.5376 21.8212 10.5084 21.8257 10.4784C21.8279 10.4622 21.8301 10.4468 21.8324 10.4314C21.8346 10.416 21.8363 10.4006 21.8385 10.3852C21.8453 10.3317 21.8503 10.2766 21.8548 10.2215C21.8548 10.2215 21.8548 10.2182 21.8548 10.2166C21.8548 10.2166 21.8548 10.2166 21.8548 10.2158C21.8559 10.2093 21.8565 10.2028 21.857 10.1971C21.8632 10.1461 21.8682 10.095 21.8732 10.0439C21.876 10.0431 21.8783 10.0423 21.8811 10.0415C21.8945 9.95152 21.9068 9.86154 21.9169 9.77156C21.9611 9.39785 21.9863 9.01928 21.9857 8.64071C21.9835 8.27511 21.9314 7.91681 21.9639 7.55283C21.9986 7.13292 22.1005 6.73327 22.1548 6.31985C22.185 6.0272 22.2034 5.73213 22.2174 5.43706L22.2163 5.43625ZM31.6919 11.0159C31.4216 10.8505 31.1524 10.6795 30.9011 10.4582C30.6515 10.2247 30.4126 9.96449 30.1708 9.714C29.7919 9.21384 29.3951 8.74204 28.9877 8.29133C28.8567 8.16568 28.7117 8.07732 28.5797 7.9541C28.4745 7.85034 28.3541 7.72469 28.2349 7.66551C27.9987 7.57229 27.7564 7.49447 27.5532 7.2837C27.3372 7.07212 27.1475 6.80866 26.9298 6.59871C26.7401 6.41469 26.5128 6.33363 26.3209 6.15366C26.0718 5.90804 25.9409 5.52542 25.689 5.2952C25.5301 5.17036 25.4025 4.98715 25.2754 4.80476C25.1652 4.67911 25.0404 4.58183 24.9161 4.48699C24.6273 4.28027 24.3016 4.16192 24.0565 3.84496C23.8315 3.54097 23.5959 3.24995 23.3161 3.0562C23.0491 2.89975 22.757 2.82922 22.528 2.55685C22.4581 2.47416 22.3652 2.40931 22.2902 2.32338C22.279 2.45552 22.2751 2.58846 22.2863 2.72141C22.2935 2.7968 22.2661 2.84787 22.2292 2.86976C22.2258 2.96541 22.2264 3.06026 22.232 3.15591C22.3008 3.6958 22.3652 4.2365 22.3988 4.78449C22.4351 5.3187 22.3954 5.85859 22.3411 6.38713C22.2835 6.82812 22.1704 7.25289 22.1475 7.7028C22.1385 8.07164 22.1883 8.43886 22.1777 8.80851C22.1721 9.06549 22.157 9.32246 22.134 9.577C22.1189 9.72616 22.0999 9.87532 22.0786 10.0261C22.1811 10.035 22.2902 10.0569 22.3797 10.065C22.6226 10.0909 22.8465 9.93125 23.0827 9.87937C23.2282 9.851 23.3715 9.79831 23.5181 9.78453C23.5875 9.77642 23.658 9.76183 23.7207 9.71562C23.7878 9.66131 23.8584 9.5235 23.9362 9.63213C23.9731 9.68401 23.977 9.78047 23.9378 9.83317C23.7571 10.1088 23.4789 10.0447 23.245 10.1315C23.0004 10.1647 22.7726 10.3106 22.5286 10.3455C22.4195 10.3585 22.3103 10.3439 22.2018 10.3293C22.1469 10.322 22.091 10.3147 22.0361 10.3106C21.9941 10.5846 21.9482 10.8562 21.9124 11.1221C21.8884 11.3012 21.8648 11.5185 21.8984 11.6952C21.9695 12.0867 22.1122 12.4288 22.1173 12.8382C22.1318 13.4543 22.1161 14.0793 22.0327 14.6849C21.941 15.1777 21.8301 15.6673 21.8106 16.1813C21.796 17.0633 22.1273 17.4046 21.9007 18.3903C21.6539 19.5981 21.4462 20.8433 21.4944 22.1111C21.4916 22.7062 21.4832 23.323 21.3522 23.8929C21.2671 24.2415 21.1384 24.569 21.0953 24.9378C21.0024 25.5831 21.186 26.2114 21.2906 26.8266C21.4367 27.5749 21.4042 28.3612 21.3723 29.128C21.3628 29.3056 21.3522 29.4831 21.3309 29.6582C21.2649 30.13 21.078 30.5556 21.0606 31.0452C21.0539 31.3476 21.1087 31.6451 21.0987 31.9475C21.0908 32.5036 20.755 32.8635 20.5883 33.3223C20.4008 33.7844 20.5468 34.3137 20.7075 34.745C21.2912 36.2341 20.9246 36.8859 20.5648 38.315C20.5116 38.5826 20.4517 38.8557 20.4612 39.137C20.4646 39.1646 20.4629 39.1962 20.4746 39.2189C20.4948 39.2603 20.4931 39.3097 20.4786 39.3519C20.6526 39.4386 20.82 39.5586 21.0074 39.5602C21.2061 39.5707 21.3998 39.5043 21.5951 39.4637C21.9639 39.4191 22.3344 39.3867 22.7043 39.3924C23.2405 39.4321 23.7733 39.5472 24.3089 39.6072C24.4572 39.6177 24.6055 39.6096 24.7538 39.6007C24.9609 39.5894 25.1674 39.5772 25.3739 39.6177C25.5424 39.6421 25.7114 39.6599 25.8793 39.6875C26.1222 39.7175 26.3679 39.8139 26.6113 39.7637C26.6343 39.4143 26.6824 39.0681 26.8011 38.7593C26.8475 38.6101 26.9085 38.4731 26.969 38.3361C26.9516 38.2769 26.9421 38.2137 26.9449 38.1464C26.9382 38.0621 26.9147 37.973 26.894 37.8959C26.8811 37.857 26.8789 37.8197 26.8845 37.7873C26.8727 37.7403 26.8604 37.6949 26.8464 37.6495C26.7876 37.4558 26.7143 37.309 26.6583 37.1202C26.5789 36.8251 26.5442 36.4384 26.327 36.2836C26.0992 36.1336 25.8541 35.9974 25.6862 35.7153C25.5765 35.5289 25.4814 35.323 25.3644 35.1438C25.1333 34.749 24.7667 34.458 24.7359 33.8889C24.6671 33.2267 25.1271 33.5817 24.9279 33.8006C24.9329 34.1581 25.1187 34.4151 25.295 34.6299C25.4277 34.8123 25.5491 35.0117 25.6649 35.216C25.7937 35.481 25.9425 35.7259 26.1524 35.8556C26.3074 35.9707 26.491 36.0339 26.6018 36.2422C26.7462 36.4822 26.7776 36.804 26.8632 37.0861C26.9628 37.3504 27.0669 37.6138 27.1162 37.9089C27.1206 37.9146 27.124 37.9203 27.1279 37.9259C27.2292 37.5863 27.3344 37.2491 27.4542 36.9224C27.7749 36.0874 28.0737 35.2273 28.353 34.3664C28.5578 33.7673 28.841 33.2258 29.0095 32.6008C29.1914 31.3905 29.2037 30.1373 29.357 28.9189C29.4477 28.2639 29.5568 27.6016 29.6346 26.945C29.7309 26.2892 29.7639 25.6091 29.9061 24.9703C29.9984 24.6022 30.1562 24.2812 30.2749 23.931C30.3739 23.6133 30.4764 23.2971 30.5581 22.9696C30.6711 22.4159 30.6862 21.8606 30.7114 21.2916C30.7814 20.2288 30.8021 19.1612 30.8228 18.0936C30.825 17.2627 30.7523 16.4277 30.8457 15.6025C30.9185 14.6005 31.2056 13.6683 31.3561 12.6955C31.4496 12.1265 31.6612 11.5979 31.6886 11.0151L31.6919 11.0159ZM33.1493 12.5902C33.1756 13.1114 33.0793 13.6205 33.0463 14.1352C33.0502 14.9491 32.8823 15.7265 32.7687 16.5161C32.6887 17.0065 32.626 17.4621 32.5846 17.9517C32.5007 18.4981 32.4178 19.0323 32.4016 19.59C32.3792 20.4266 32.5393 21.2502 32.4917 22.0868C32.4721 22.5294 32.4486 22.9761 32.3635 23.4041C32.2941 23.7203 32.2773 24.051 32.2247 24.372C32.1156 24.9524 31.8917 25.4623 31.6897 25.9811C31.5448 26.4229 31.4518 26.8996 31.3987 27.3819C31.364 27.7119 31.3813 28.0467 31.3785 28.379C31.3584 29.1078 31.3724 29.8382 31.3539 30.5661C31.331 31.1984 31.275 31.8299 31.2157 32.4565C31.1563 32.9486 31.0108 33.4058 30.9006 33.8768C30.797 34.4337 30.6717 34.9784 30.5329 35.5183C30.4568 35.8928 30.3655 36.2625 30.2956 36.6395C30.2508 36.9216 30.2016 37.2061 30.1092 37.4663C29.9408 37.9446 29.779 38.4334 29.6637 38.9449C29.5848 39.2984 29.5154 39.6575 29.4102 39.9971C29.2244 40.4892 29.1326 41.0526 28.9015 41.5065C28.7168 41.8624 28.4476 42.0991 28.1526 42.2069C27.9652 42.3204 27.7721 42.4161 27.5672 42.4347C27.2454 42.5061 26.9303 42.6601 26.6001 42.6058C26.1703 42.5855 25.7405 42.5531 25.3101 42.5717C24.9542 42.5523 24.5949 42.4412 24.2428 42.5701C23.7503 42.7484 23.2623 42.9681 22.7547 43.0435C22.3786 43.0873 22.0048 42.96 21.632 43.1059C21.3276 43.2056 21.0153 43.2283 20.7041 43.2454C20.4198 43.2632 20.1366 43.3305 19.8517 43.3005C19.5411 43.2543 19.2372 43.0857 18.921 43.1392C18.6255 43.1886 18.3261 43.0946 18.0334 43.1854C17.9036 43.2283 17.7676 43.2583 17.6394 43.1878C17.5163 43.1254 17.3993 43.037 17.2723 42.9908C16.9018 42.8773 16.5223 42.8392 16.1468 42.7687C15.91 42.7703 15.6862 42.9106 15.4522 42.9543C14.9676 43.0662 14.4852 43.2194 13.9921 43.221C13.7011 43.2219 13.41 43.1805 13.1185 43.2097C12.5711 43.2559 12.0322 43.4513 11.4831 43.4456C11.0807 43.4707 10.7483 43.1351 10.3968 42.9081C9.91272 42.6301 9.40063 42.4282 8.87566 42.4404C8.6865 42.4493 8.50013 42.4971 8.31097 42.5117C7.91193 42.5279 7.51289 42.5207 7.11385 42.5604C6.59504 42.5701 6.08295 42.412 5.56638 42.3577C5.36882 42.3383 5.17518 42.3909 4.98098 42.4372C4.68212 42.4574 4.3452 42.4704 4.08664 42.2231C2.97291 41.0874 3.04343 41.2674 2.69028 39.3567C2.62536 39.0195 2.58451 38.675 2.53638 38.3329C2.46698 37.8943 2.37184 37.4647 2.3377 37.0156C2.28285 36.4295 2.28677 35.8329 2.22353 35.2484C2.15861 34.8244 2.0366 34.4223 1.97448 33.9968C1.92467 33.5347 1.83904 33.0864 1.74446 32.6406C1.52563 31.7334 1.42881 30.7834 1.30344 29.8422C1.17192 29.2018 1.10141 28.5428 1.05048 27.8805C1.02529 27.3519 1.06671 26.8226 1.00458 26.2973C0.988354 26.1206 0.982197 25.9398 0.94526 25.7688C0.901606 25.5961 0.835006 25.438 0.798069 25.2621C0.750497 25.053 0.759452 24.83 0.750497 24.6136C0.736506 24.3785 0.685017 24.1937 0.669906 23.9683C0.66431 23.6424 0.741543 23.3271 0.757773 23.0028C0.76281 22.8983 0.769526 22.7888 0.826052 22.7134C0.883137 22.6235 0.925112 22.5181 0.955893 22.4046C0.725872 22.1176 1.25419 21.6434 1.40306 21.5064C1.5732 21.3621 1.773 21.3167 1.9672 21.3135C2.31083 21.2583 2.58563 20.9325 2.85986 20.6577C3.09604 20.4607 3.31878 20.2353 3.5197 19.9686C3.76931 19.6841 3.99653 19.3169 4.30211 19.162C4.51142 19.0712 4.72074 18.9804 4.9155 18.8337C5.0487 18.7454 5.1763 18.6359 5.31957 18.5857C5.47292 18.5322 5.63019 18.5776 5.78521 18.5565C6.04601 18.5062 6.30906 18.4754 6.5721 18.4657C6.74447 18.4584 6.92077 18.4527 7.08922 18.5095C7.15079 18.5459 7.19948 18.5411 7.25544 18.4884C7.41103 18.3562 7.58005 18.2655 7.74291 18.1585C7.76362 18.0239 7.786 17.8909 7.83078 17.7685C7.95278 17.4054 8.15202 17.1152 8.35014 16.8379C8.56393 16.5153 8.79339 16.2162 9.01502 15.9049C9.30996 15.4558 9.62001 14.9913 9.95245 14.6087C10.2927 14.1685 10.5463 13.614 10.8546 13.1309C11.0343 12.8342 11.2425 12.5804 11.4272 12.2918C11.5458 12.0851 11.6471 11.8533 11.7977 11.6903C12.1374 11.3912 12.5342 11.1837 12.9327 11.1391C13.335 11.084 13.7251 11.4293 14.1219 11.2437C14.1051 10.7168 14.174 10.1582 14.0889 9.63942C14.0117 9.27058 14.0329 8.88634 14.066 8.5102C14.0732 8.41292 14.0816 8.31483 14.0884 8.21756C14.0945 8.12839 14.0934 8.03192 14.1398 7.96383C14.2977 7.79765 14.5042 7.75144 14.6738 7.61039C15.0118 7.35585 15.3017 6.99106 15.6246 6.70004C15.9996 6.29715 16.4613 6.12772 16.857 5.77915C17.0725 5.57811 17.1609 5.21494 17.2762 4.90528C17.3551 4.71234 17.4441 4.52346 17.5571 4.36944C17.9019 3.95845 18.3283 3.71931 18.6944 3.35128C18.8539 3.18996 19.0039 3.01243 19.1511 2.82841C19.3245 2.60792 19.4633 2.33311 19.6603 2.15315C19.9379 1.88888 20.2558 1.72675 20.5301 1.45276C20.7679 1.21848 20.9655 0.903141 21.2173 0.700481C21.3483 0.582127 21.4983 0.588612 21.6438 0.626712C21.7831 0.632387 21.9214 0.602393 22.0596 0.582127C22.2247 0.555376 22.3943 0.528625 22.5566 0.595097C22.7267 0.66157 22.865 0.828562 23.0127 0.959886C23.2041 1.13174 23.3591 1.40736 23.5181 1.61569C23.6933 1.8143 23.8903 2.06965 24.127 2.04371C24.53 1.91887 24.802 2.15477 25.1478 2.41256C25.2861 2.51551 25.4416 2.58765 25.5541 2.74816C25.6392 2.86327 25.6638 3.04242 25.7495 3.15348C26.0992 3.54259 26.491 3.85063 26.829 4.26406C27.3557 4.25433 27.7682 4.86312 28.2198 5.16144C28.4582 5.32762 28.7022 5.47516 28.9328 5.66566C29.1875 5.87075 29.4102 6.14961 29.666 6.35227C29.8255 6.46252 29.9794 6.51764 30.1422 6.59709C30.4243 6.74219 30.6711 6.98781 30.9135 7.23587C31.1155 7.42961 31.3444 7.56175 31.5358 7.779C31.7485 8.04813 31.9298 8.36347 32.115 8.67071C32.2729 8.94551 32.5197 9.06144 32.6691 9.34678C32.7648 9.55593 32.9238 9.67509 32.9909 9.90693C33.198 10.3893 33.0586 10.9389 32.9506 11.4309C32.9439 11.4925 32.9529 11.5355 32.959 11.5914C33.0178 11.9271 33.1325 12.2432 33.1504 12.5926L33.1493 12.5902Z" fill="white"/>
</g>
</g>
<defs>
<clipPath id="clip0_80_356">
<rect width="32.4828" height="42.8943" fill="white" transform="translate(0.672302 0.552979)"/>
</clipPath>
<clipPath id="clip1_80_356">
<rect width="32.4828" height="42.8943" fill="white" transform="translate(0.672302 0.552979)"/>
</clipPath>
</defs>
</svg>
