<svg width="289" height="69" viewBox="0 0 289 69" fill="none" xmlns="http://www.w3.org/2000/svg">
<path d="M120.756 68.3065V21.4975H120.408L101.598 68.3065H94.2829L75.4731 21.4975H75.1247V68.3065H66.4164V4.85427H77.563L97.7662 55.4774H98.1146L118.318 4.85427H129.813V68.3065H120.756ZM178.927 68.3065H169.871V60.3317H169.522C167.084 65.8794 162.208 69 155.241 69C145.139 69 139.218 62.4121 139.218 51.6633V21.8442H148.623V49.9296C148.623 56.8643 152.106 60.6784 158.376 60.6784C165.342 60.6784 169.174 55.8241 169.174 48.5427V21.8442H178.579L178.927 68.3065ZM204.704 21.1508C215.502 21.1508 222.12 27.0452 222.469 35.7136H213.761C213.064 31.206 209.929 28.4322 204.704 28.4322C199.479 28.4322 195.996 30.8593 195.996 34.6734C195.996 37.4472 198.086 39.5276 202.962 40.5678L210.277 42.3015C219.682 44.3819 223.165 48.196 223.165 54.7839C223.165 63.1055 215.502 69 204.704 69C193.209 69 186.242 63.4523 185.546 54.4372H194.951C195.647 59.2915 199.131 61.7186 204.704 61.7186C210.277 61.7186 213.761 59.2915 213.761 55.4774C213.761 52.3568 212.019 50.6231 207.142 49.5829L199.827 47.8492C191.119 45.7688 186.939 41.608 186.939 34.6734C186.939 26.6985 193.906 21.1508 204.704 21.1508ZM230.132 9.70854C230.132 6.58794 232.57 4.1608 235.705 4.1608C238.84 4.1608 241.279 6.58794 241.279 9.70854C241.279 12.8291 238.84 15.2563 235.705 15.2563C232.57 15.2563 230.132 12.8291 230.132 9.70854ZM230.829 21.8442H240.234V68.3065H230.829V21.8442ZM279.943 37.794C278.898 32.9397 275.415 28.7789 269.145 28.7789C261.83 28.7789 256.954 35.0201 256.954 44.7286C256.954 54.7839 261.83 60.6784 269.145 60.6784C275.067 60.6784 278.55 57.5578 279.943 52.01H289C287.955 61.7186 280.292 68.6533 269.145 68.6533C255.909 68.6533 247.549 59.6382 247.549 44.7286C247.549 30.1658 255.909 20.804 269.145 20.804C280.988 20.804 287.955 28.4322 289 37.4472L279.943 37.794ZM37.505 11.0955C35.0667 13.8693 31.235 16.2965 27.4034 15.9497C26.7067 11.7889 28.7967 7.62814 30.8867 5.201C33.325 2.0804 37.505 0 40.9883 0C41.3366 3.81407 39.9433 7.97487 37.505 11.0955ZM40.9883 16.6432C43.0783 16.6432 49.3482 17.3367 53.5282 23.5779C53.1799 23.9246 46.2132 28.0854 46.2132 36.7538C46.2132 47.1558 55.2699 50.6231 55.2699 50.6231C55.2699 50.9699 53.8765 55.4774 50.7416 60.3317C47.9549 64.4925 44.8199 68.6533 40.2916 68.6533C35.7633 68.6533 34.37 65.8794 29.145 65.8794C23.9201 65.8794 22.1784 68.6533 17.9984 68.6533C13.4701 68.6533 9.98681 64.1457 7.20017 59.9849C1.27854 51.3166 -3.24977 35.7136 3.02019 25.3116C5.80684 20.1106 11.3801 16.6432 16.9534 16.6432C21.4817 16.6432 25.6617 19.7638 28.1 19.7638C30.5384 19.7638 35.415 16.2965 40.9883 16.6432Z" fill="#F4FFA0"/>
</svg>
