<svg width="378" height="113" viewBox="0 0 378 113" fill="none" xmlns="http://www.w3.org/2000/svg">
<path d="M0 56.3313C0 87.3642 25.6959 113 56.8014 113C87.907 113 113.603 87.3642 113.603 56.3313C113.603 25.2985 87.907 0 56.8014 0C25.6959 0 0 25.2985 0 56.3313ZM77.7639 82.6418C64.5778 74.5463 47.6726 72.5224 28.0626 76.9075C23.3292 77.5821 22.653 70.8358 26.7102 70.1612C48.3488 65.1015 66.6064 67.4627 81.483 76.5702C85.2022 78.9313 81.483 84.6657 77.7639 82.6418ZM83.5116 67.4627C68.297 58.0179 44.9678 55.3194 27.0483 60.7164C21.3005 62.403 19.2719 53.6328 24.6816 52.2836C45.3059 46.2119 70.6637 49.2478 88.2451 60.0418C92.9785 63.0776 88.2451 70.4985 83.5116 67.4627ZM24.3435 43.5134C18.5957 45.5373 14.8766 35.7552 21.3005 33.394C41.2487 27.3224 75.059 28.3343 96.0215 40.8149C101.769 43.8507 96.3596 53.2955 90.2737 49.9224C72.0161 39.1284 41.5868 38.1164 24.3435 43.5134ZM152.485 74.209C146.737 74.209 141.327 72.1851 136.594 67.4627C136.256 67.4627 136.256 67.8 136.256 67.8L130.846 74.209C130.508 74.5463 130.508 74.8836 130.846 75.2209C136.932 80.6179 144.37 83.3164 152.485 83.3164C163.98 83.3164 171.081 76.9075 171.081 67.4627C171.081 59.3672 166.009 54.9821 154.175 51.9463C144.37 49.5851 142.68 47.8985 142.68 44.5254C142.68 41.1522 146.061 39.1284 150.456 39.1284C154.852 39.1284 158.909 40.8149 163.642 44.1881C163.642 44.1881 163.98 44.5254 164.318 44.5254C164.657 44.5254 164.657 44.1881 164.657 44.1881L169.39 37.4418C169.728 37.1045 169.728 37.1045 169.39 36.7672C163.98 32.3821 157.556 30.0209 150.456 30.0209C139.975 30.0209 132.537 36.4299 132.537 45.5373C132.537 55.3194 139.299 58.3552 150.118 61.0537C159.585 63.0776 160.937 65.1015 160.937 68.4746C160.937 72.1851 157.556 74.209 152.485 74.209ZM184.605 48.2358V43.8507C184.605 43.5134 184.267 43.1761 183.928 43.1761H175.138C174.8 43.1761 174.462 43.5134 174.462 43.8507V93.4358C174.462 93.7731 174.8 94.1105 175.138 94.1105H183.928C184.267 94.1105 184.605 93.7731 184.605 93.4358V77.9194C187.986 81.6299 191.705 83.3164 196.776 83.3164C205.905 83.3164 215.034 76.2328 215.034 62.7403C215.034 49.2478 205.905 42.5015 196.776 42.5015C191.705 42.5015 187.986 44.1881 184.605 48.2358ZM194.748 74.5463C188.662 74.5463 184.267 69.4866 184.267 62.7403C184.267 55.994 188.662 51.2716 194.748 51.2716C200.834 51.2716 204.891 55.994 204.891 62.7403C204.891 69.4866 200.834 74.5463 194.748 74.5463ZM217.739 63.0776C217.739 74.5463 226.868 83.3164 238.701 83.3164C250.535 83.3164 259.664 74.209 259.664 62.7403C259.664 51.2716 250.873 42.5015 239.039 42.5015C227.206 42.5015 217.739 51.609 217.739 63.0776ZM227.882 62.7403C227.882 55.994 232.277 51.2716 238.701 51.2716C245.125 51.2716 249.859 56.3313 249.859 63.0776C249.859 69.8239 245.463 74.5463 239.039 74.5463C232.615 74.5463 227.882 69.4866 227.882 62.7403ZM275.216 43.1761V33.394C275.216 33.0567 275.216 32.7194 274.878 32.7194H266.088C265.75 32.7194 265.411 33.0567 265.411 33.394V43.1761H261.016C260.678 43.1761 260.34 43.5134 260.34 43.8507V51.2716C260.34 51.609 260.678 51.9463 261.016 51.9463H265.411V71.5105C265.411 79.2687 269.131 83.3164 276.907 83.3164C279.95 83.3164 282.993 82.6418 285.36 81.2925C285.698 81.2925 285.698 80.9552 285.698 80.6179V73.5343C285.698 73.197 285.698 72.8597 285.36 72.8597H284.683C282.993 73.8716 280.964 74.209 279.274 74.209C276.569 74.209 275.216 72.8597 275.216 70.1612V51.9463H285.36C285.698 51.9463 286.036 51.609 286.036 51.2716V43.8507C286.036 43.5134 285.698 43.1761 285.36 43.1761H275.216ZM318.832 42.1642C318.832 38.4537 320.184 37.1045 323.227 37.1045C324.918 37.1045 326.608 37.1045 328.299 37.7791H328.637C328.637 37.7791 328.975 37.4418 328.975 37.1045V30.0209C328.975 29.6836 328.975 29.3463 328.637 29.3463C326.946 28.6716 324.58 28.3343 321.199 28.3343C313.084 28.3343 309.027 33.0567 309.027 41.4896V43.1761H304.631C304.293 43.1761 303.955 43.5134 303.955 43.8507V51.2716C303.955 51.609 304.293 51.9463 304.631 51.9463H309.027V81.9672C309.027 82.3045 309.365 82.6418 309.703 82.6418H318.494C318.832 82.6418 318.832 82.3045 318.832 81.9672V51.9463H327.284L339.794 81.9672C338.442 85.003 337.089 85.6776 335.061 85.6776C333.37 85.6776 331.68 85.3403 329.989 84.3284H329.651L329.313 84.6657L326.27 91.0746C326.27 91.4119 326.27 92.0866 326.608 92.0866C329.651 93.7731 332.356 94.4478 335.737 94.4478C342.161 94.4478 345.88 91.4119 348.923 83.3164L364.138 44.1881V43.5134C364.138 43.1761 363.8 43.1761 363.462 43.1761H354.333C353.995 43.1761 353.995 43.5134 353.995 43.8507L344.528 70.1612L334.385 43.8507C334.385 43.5134 334.047 43.1761 333.708 43.1761H318.832V42.1642ZM290.769 43.1761C290.431 43.1761 290.093 43.5134 290.093 43.8507V81.9672C290.093 82.3045 290.431 82.6418 290.769 82.6418H299.56C299.898 82.6418 299.898 82.3045 299.898 81.9672V43.8507C299.898 43.5134 299.898 43.1761 299.56 43.1761H290.769ZM288.741 32.0448C288.741 35.4179 291.784 38.4537 295.165 38.4537C298.546 38.4537 301.25 35.4179 301.25 32.0448C301.25 28.6716 298.546 25.9731 295.165 25.9731C291.784 25.9731 288.741 28.6716 288.741 32.0448ZM371.576 55.3194C374.957 55.3194 378 52.6209 378 49.2478C378 45.8746 374.957 43.1761 371.576 43.1761C368.195 43.1761 365.49 45.8746 365.49 49.2478C365.49 52.6209 368.195 55.3194 371.576 55.3194ZM371.576 43.8507C374.619 43.8507 377.324 46.2119 377.324 49.2478C377.324 52.2836 374.619 54.6448 371.576 54.6448C368.533 54.6448 366.166 52.2836 366.166 49.2478C366.166 46.2119 368.533 43.8507 371.576 43.8507ZM372.928 49.9224C373.943 49.5851 374.619 48.9104 374.619 47.8985C374.619 46.5493 373.267 45.8746 371.914 45.8746H369.209V52.2836H370.562V50.2597H371.914L373.267 52.2836H374.957L372.928 49.9224ZM371.914 46.8866C372.59 46.8866 373.267 47.2239 373.267 47.8985C373.267 48.5731 372.59 48.9104 371.914 48.9104H370.562V46.8866H371.914Z" fill="#F4FFA0"/>
</svg>
